<?xml version="1.0" encoding="utf-8"?>
<!-- Generator: Adobe Illustrator 16.0.0, SVG Export Plug-In . SVG Version: 6.00 Build 0)  -->
<!DOCTYPE svg PUBLIC "-//W3C//DTD SVG 1.1//EN" "http://www.w3.org/Graphics/SVG/1.1/DTD/svg11.dtd">
<svg version="1.1" id="Layer_1" xmlns="http://www.w3.org/2000/svg" xmlns:xlink="http://www.w3.org/1999/xlink" x="0px" y="0px"
	 width="40px" height="40px" viewBox="0 0 40 40" enable-background="new 0 0 40 40" xml:space="preserve">
<path fill="#6DDEB4" d="M20.001,1C9.506,1,1,9.508,1,20.001C1,30.495,9.506,39,20.001,39C30.495,39,39,30.495,39,20.001
	C39,9.508,30.493,1,20.001,1z M29.57,16.169c0.012,0.205,0.016,0.412,0.016,0.62c0,6.328-4.817,13.624-13.624,13.624
	c-2.704,0-5.222-0.793-7.34-2.151c0.374,0.044,0.755,0.067,1.142,0.067c2.244,0,4.308-0.767,5.946-2.049
	c-2.095-0.041-3.863-1.426-4.472-3.328c0.291,0.059,0.591,0.086,0.9,0.086c0.437,0,0.859-0.057,1.261-0.167
	c-2.19-0.44-3.841-2.376-3.841-4.695c0-0.02,0-0.04,0.001-0.061c0.645,0.357,1.383,0.574,2.168,0.6
	c-1.285-0.861-2.13-2.324-2.13-3.986c0-0.877,0.236-1.701,0.647-2.407c2.362,2.896,5.891,4.803,9.871,5.002
	c-0.082-0.349-0.124-0.716-0.124-1.091c0-2.643,2.144-4.788,4.788-4.788c1.377,0,2.622,0.582,3.495,1.512
	c1.091-0.214,2.116-0.613,3.041-1.163c-0.358,1.119-1.117,2.058-2.106,2.649c0.97-0.115,1.893-0.373,2.751-0.753
	C31.32,14.651,30.508,15.495,29.57,16.169z"/>
</svg>
