<?xml version="1.0" encoding="utf-8"?>
<!-- Generator: Adobe Illustrator 16.0.0, SVG Export Plug-In . SVG Version: 6.00 Build 0)  -->
<!DOCTYPE svg PUBLIC "-//W3C//DTD SVG 1.1//EN" "http://www.w3.org/Graphics/SVG/1.1/DTD/svg11.dtd">
<svg version="1.1" id="Layer_1" xmlns="http://www.w3.org/2000/svg" xmlns:xlink="http://www.w3.org/1999/xlink" x="0px" y="0px"
	 width="40px" height="40px" viewBox="0 0 40 40" enable-background="new 0 0 40 40" xml:space="preserve">
<g>
	<path fill="#6DDEB4" d="M20.053,1c-10.493,0-19,8.72-19,19.484c0,8.609,5.446,15.905,12.995,18.484
		c0.949,0.178,1.297-0.425,1.297-0.942c0-0.467-0.017-1.688-0.024-3.317c-5.284,1.18-6.405-2.611-6.405-2.611
		c-0.864-2.248-2.111-2.851-2.111-2.851c-1.722-1.214,0.127-1.188,0.127-1.188C8.839,28.194,9.84,30.07,9.84,30.07
		c1.697,2.977,4.445,2.121,5.53,1.619c0.17-1.255,0.662-2.119,1.204-2.604c-4.215-0.491-8.651-2.163-8.651-9.628
		c0-2.128,0.738-3.867,1.952-5.224c-0.195-0.492-0.849-2.477,0.187-5.157c0,0,1.595-0.526,5.224,1.993
		c1.52-0.433,3.14-0.645,4.759-0.653c1.612,0.008,3.24,0.22,4.759,0.653c3.63-2.52,5.217-1.993,5.217-1.993
		c1.035,2.68,0.381,4.665,0.187,5.157c1.212,1.365,1.951,3.104,1.951,5.224c0,7.482-4.445,9.128-8.678,9.611
		c0.679,0.604,1.289,1.791,1.289,3.605c0,2.604-0.025,4.708-0.025,5.344c0,0.518,0.339,1.129,1.307,0.933
		c7.566-2.569,13.003-9.865,13.003-18.466C39.053,9.72,30.545,1,20.053,1z"/>
</g>
</svg>
