<?xml version="1.0" encoding="utf-8"?>
<!-- Generator: Adobe Illustrator 16.0.0, SVG Export Plug-In . SVG Version: 6.00 Build 0)  -->
<!DOCTYPE svg PUBLIC "-//W3C//DTD SVG 1.1//EN" "http://www.w3.org/Graphics/SVG/1.1/DTD/svg11.dtd">
<svg version="1.1" id="Layer_1" xmlns="http://www.w3.org/2000/svg" xmlns:xlink="http://www.w3.org/1999/xlink" x="0px" y="0px"
	 width="1390px" height="412px" viewBox="0 0 1390 412" enable-background="new 0 0 1390 412" xml:space="preserve">
<path fill="#1E2A36" d="M189.896,27.285L14.893,90.54l27.936,228.235l147.067,82.23l147.065-82.23L364.897,90.54L189.896,27.285z"/>
<g>
	<polygon fill="#010101" points="160.001,223.37 191.897,223.37 223.78,223.37 191.897,145.621 	"/>
	<path fill="#010101" d="M191.893,27.285L16.891,90.54l27.936,228.235l147.065,82.23l147.067-82.23L366.891,90.54L191.893,27.285z
		 M260.064,312.1l-21.785-54.466h-46.387h-46.38L123.718,312.1H81.902L191.893,66.818L301.88,312.1H260.064z"/>
	<polygon fill="#BDE2D5" points="157.714,221.083 189.61,221.083 221.493,221.083 189.61,143.334 	"/>
	<polygon fill="#A2D7C1" points="189.605,221.083 221.493,221.083 189.605,143.331 	"/>
	<path fill="#BDE2D5" d="M189.605,24.998L14.604,88.25l27.941,228.238l147.06,82.23l147.068-82.23L364.604,88.25L189.605,24.998z
		 M257.777,309.813l-21.785-54.466h-46.387h-46.38l-21.794,54.466H79.615l109.99-245.281l109.988,245.281H257.777z"/>
	<polygon fill="#A2D7C1" points="189.605,64.531 299.593,309.813 257.777,309.813 235.992,255.342 189.605,255.342 189.605,398.719 
		336.673,316.483 364.604,88.248 189.605,24.993 	"/>
</g>
<g>
	<path fill="#010101" d="M450.153,166.488l47.53-115.027h22.608l47.529,115.027h-27.065L533,147.179h-48.025l-7.755,19.309H450.153z
		 M492.237,126.882h33.503L509.073,85.13L492.237,126.882z"/>
	<polygon fill="#010101" points="598.683,166.489 598.683,51.462 621.291,51.462 676.409,122.921 676.409,51.462 701.001,51.462 
		701.001,166.489 680.209,166.489 623.272,93.049 623.272,166.489 	"/>
	<g>
		<path fill="#010101" d="M735.161,109.058c0-8.25,1.597-16.061,4.786-23.435c3.189-7.369,7.65-13.721,13.369-19.062
			c5.719-5.336,12.348-9.49,19.885-12.458c7.535-2.969,15.484-4.455,23.848-4.455c8.581,0,16.722,1.65,24.424,4.951
			c7.701,3.3,14.413,7.867,20.135,13.696l-17.162,15.018c-3.412-3.411-7.509-6.023-12.295-7.838
			c-4.788-1.814-9.82-2.723-15.102-2.723c-4.951,0-9.682,0.909-14.192,2.723c-4.513,1.815-8.416,4.373-11.718,7.674
			c-3.3,3.3-5.885,7.177-7.753,11.636c-1.876,4.457-2.81,9.216-2.81,14.273c0,5.061,0.934,9.819,2.81,14.276
			c1.868,4.457,4.453,8.309,7.753,11.551c3.302,3.246,7.205,5.777,11.718,7.593c4.511,1.814,9.241,2.723,14.192,2.723
			c4.843,0,9.433-0.77,13.78-2.311c4.346-1.54,8.112-3.738,11.305-6.601v-15.513h-30.198V98.331h53.964v46.541
			c-5.394,7.152-12.378,12.846-20.959,17.08c-8.581,4.238-17.88,6.352-27.892,6.352c-8.363,0-16.313-1.458-23.848-4.371
			c-7.537-2.915-14.166-7.07-19.885-12.462c-5.719-5.387-10.18-11.745-13.369-19.062
			C736.758,125.094,735.161,117.309,735.161,109.058"/>
		<path fill="#010101" d="M880.391,119.95V51.461h25.415v65.848c0,18.595,7.863,27.892,23.599,27.892
			c7.37,0,13.12-2.254,17.248-6.767c4.125-4.509,6.188-11.551,6.188-21.125V51.461h25.413v68.489c0,7.814-1.264,14.772-3.795,20.877
			c-2.532,6.106-6.021,11.196-10.48,15.265c-4.454,4.072-9.653,7.123-15.595,9.159c-5.941,2.035-12.269,3.052-18.979,3.052
			s-13.064-1.017-19.062-3.052c-5.999-2.036-11.221-5.087-15.679-9.159c-4.455-4.069-7.948-9.159-10.476-15.265
			C881.656,134.723,880.391,127.764,880.391,119.95"/>
		<polygon fill="#010101" points="1016.705,166.489 1016.705,51.462 1042.119,51.462 1042.119,143.384 1087.008,143.384 
			1087.008,166.489 		"/>
		<path fill="#010101" d="M1109.946,166.488l47.53-115.027h22.607l47.53,115.027h-27.066l-7.755-19.309h-48.025l-7.756,19.309
			H1109.946z M1152.029,126.882h33.501l-16.667-41.752L1152.029,126.882z"/>
		<path fill="#010101" d="M1258.473,166.488V51.461h48.19c6.601,0,13.037,1.652,19.309,4.95c6.271,3.303,11.142,8.005,14.604,14.112
			c3.467,6.107,5.199,12.407,5.199,18.897c0,3.521-0.634,7.428-1.896,11.718c-1.268,4.292-3.551,8.361-6.851,12.211
			c-3.298,3.853-7.207,6.767-11.718,8.746l28.059,44.394h-28.72l-23.929-38.287h-0.328h-16.671v38.287H1258.473z M1283.723,105.758
			h20.137c4.838,0,8.799-1.485,11.881-4.457c3.079-2.971,4.62-6.821,4.62-11.553c0-4.29-1.374-7.894-4.125-10.807
			c-2.752-2.915-6.162-4.375-10.232-4.375h-22.28V105.758z"/>
		<path fill="#FFFFFF" d="M448.535,164.87l47.53-115.027h22.606l47.531,115.027h-27.067l-7.754-19.309h-48.024l-7.756,19.309
			H448.535z M490.619,125.264h33.503l-16.669-41.752L490.619,125.264z"/>
		<polygon fill="#FFFFFF" points="597.064,164.872 597.064,49.844 619.673,49.844 674.793,121.303 674.793,49.844 699.385,49.844 
			699.385,164.872 678.591,164.872 621.654,91.431 621.654,164.872 		"/>
		<path fill="#FFFFFF" d="M733.544,107.44c0-8.25,1.596-16.062,4.785-23.435c3.192-7.369,7.647-13.721,13.369-19.062
			c5.72-5.336,12.348-9.49,19.885-12.459c7.536-2.968,15.485-4.454,23.848-4.454c8.583,0,16.722,1.65,24.425,4.951
			c7.7,3.3,14.414,7.867,20.134,13.696l-17.162,15.018c-3.412-3.409-7.509-6.023-12.295-7.838c-4.786-1.814-9.82-2.723-15.102-2.723
			c-4.95,0-9.682,0.909-14.192,2.723c-4.513,1.815-8.416,4.373-11.718,7.674c-3.3,3.3-5.884,7.176-7.753,11.635
			c-1.876,4.457-2.809,9.216-2.809,14.274c0,5.061,0.933,9.819,2.809,14.276c1.869,4.457,4.453,8.309,7.753,11.55
			c3.302,3.246,7.205,5.778,11.718,7.593c4.511,1.814,9.242,2.723,14.192,2.723c4.843,0,9.433-0.77,13.781-2.311
			c4.345-1.54,8.111-3.738,11.304-6.601v-15.513h-30.198V96.712h53.964v46.541c-5.393,7.152-12.378,12.846-20.959,17.081
			c-8.581,4.237-17.88,6.352-27.892,6.352c-8.362,0-16.312-1.458-23.848-4.371c-7.537-2.915-14.165-7.069-19.885-12.462
			c-5.722-5.387-10.177-11.744-13.369-19.062C735.14,123.476,733.544,115.69,733.544,107.44"/>
		<path fill="#FFFFFF" d="M878.772,118.332V49.843h25.415v65.848c0,18.595,7.863,27.892,23.599,27.892
			c7.37,0,13.12-2.254,17.248-6.767c4.126-4.508,6.187-11.551,6.187-21.125V49.843h25.414v68.489c0,7.814-1.264,14.772-3.795,20.877
			c-2.531,6.106-6.021,11.196-10.48,15.266c-4.453,4.071-9.653,7.122-15.595,9.159c-5.941,2.035-12.269,3.052-18.979,3.052
			c-6.712,0-13.064-1.017-19.062-3.052c-5.998-2.037-11.223-5.087-15.678-9.159c-4.456-4.069-7.949-9.159-10.479-15.266
			C880.039,133.104,878.772,126.146,878.772,118.332"/>
		<polygon fill="#FFFFFF" points="1015.087,164.872 1015.087,49.844 1040.502,49.844 1040.502,141.766 1085.39,141.766 
			1085.39,164.872 		"/>
		<path fill="#FFFFFF" d="M1108.328,164.87l47.53-115.027h22.607l47.53,115.027h-27.066l-7.755-19.309h-48.025l-7.755,19.309
			H1108.328z M1150.412,125.264h33.5l-16.666-41.752L1150.412,125.264z"/>
		<path fill="#FFFFFF" d="M1256.855,164.87V49.843h48.189c6.601,0,13.039,1.652,19.309,4.95c6.271,3.303,11.139,8.008,14.604,14.112
			c3.467,6.106,5.199,12.407,5.199,18.896c0,3.521-0.634,7.429-1.896,11.718c-1.268,4.292-3.551,8.361-6.851,12.211
			c-3.3,3.852-7.207,6.767-11.718,8.748l28.059,44.392h-28.719l-23.93-38.287h-0.328h-16.671v38.287H1256.855z M1282.104,104.14
			h20.139c4.836,0,8.799-1.484,11.879-4.457c3.079-2.971,4.62-6.821,4.62-11.553c0-4.29-1.376-7.894-4.125-10.807
			c-2.752-2.915-6.162-4.375-10.232-4.375h-22.28V104.14z"/>
		<polygon fill="#010101" points="448.672,379.663 448.672,264.639 469.962,264.639 509.403,323.553 548.844,264.639 
			570.135,264.639 570.135,379.663 546.206,379.663 546.206,309.527 509.403,363.985 472.438,309.527 472.438,379.663 		"/>
		<polygon fill="#010101" points="609.742,379.663 609.742,264.639 688.301,264.639 688.301,287.742 635.155,287.742 
			635.155,309.362 684.834,309.362 684.834,331.973 635.155,331.973 635.155,356.562 689.454,356.562 689.454,379.663 		"/>
		<path fill="#010101" d="M725.43,379.663V264.639h43.567c9.679,0,18.372,1.429,26.075,4.291
			c7.698,2.861,14.137,6.877,19.306,12.048c5.171,5.173,9.079,11.302,11.718,18.401c2.642,7.093,3.961,14.77,3.961,23.02
			c0,11.773-2.475,22.034-7.426,30.777c-4.951,8.749-12.048,15.351-21.289,19.804c-9.241,4.458-19.969,6.684-32.182,6.684H725.43z
			 M750.842,356.562h16.671c11.879,0,21.011-2.694,27.392-8.088c6.38-5.391,9.572-14.079,9.572-26.075
			c0-12.211-3.192-21.04-9.572-26.486c-6.381-5.446-15.567-8.17-27.559-8.17h-16.504V356.562z"/>
		<polygon fill="#010101" points="864.383,379.663 864.383,264.639 942.938,264.639 942.938,287.742 889.797,287.742 
			889.797,309.362 939.474,309.362 939.474,331.973 889.797,331.973 889.797,356.562 944.095,356.562 944.095,379.663 		"/>
		<polygon fill="#010101" points="980.067,379.663 980.067,264.639 1005.482,264.639 1005.482,356.562 1050.37,356.562 
			1050.37,379.663 		"/>
		<polygon fill="#010101" points="1083.043,379.663 1083.043,264.639 1108.458,264.639 1108.458,356.562 1153.347,356.562 
			1153.347,379.663 		"/>
		<rect x="1186.684" y="264.637" fill="#010101" width="25.413" height="115.026"/>
		<polygon fill="#010101" points="1252.529,379.663 1252.529,264.639 1275.14,264.639 1330.258,336.098 1330.258,264.639 
			1354.852,264.639 1354.852,379.663 1334.055,379.663 1277.119,306.226 1277.119,379.663 		"/>
		<polygon fill="#FFFFFF" points="447.054,378.047 447.054,263.021 468.344,263.021 507.783,321.935 547.228,263.021 
			568.52,263.021 568.52,378.047 544.591,378.047 544.591,307.909 507.783,362.369 470.82,307.909 470.82,378.047 		"/>
		<polygon fill="#FFFFFF" points="608.125,378.047 608.125,263.021 686.681,263.021 686.681,286.124 633.539,286.124 
			633.539,307.744 683.216,307.744 683.216,330.354 633.539,330.354 633.539,354.941 687.836,354.941 687.836,378.047 		"/>
		<path fill="#FFFFFF" d="M723.812,378.047V263.021h43.567c9.682,0,18.373,1.428,26.075,4.288
			c7.698,2.863,14.138,6.879,19.309,12.05c5.169,5.174,9.076,11.302,11.716,18.401c2.642,7.093,3.962,14.77,3.962,23.021
			c0,11.772-2.477,22.031-7.428,30.779c-4.95,8.744-12.048,15.348-21.289,19.804c-9.241,4.455-19.969,6.683-32.182,6.683H723.812z
			 M749.224,354.941h16.671c11.879,0,21.011-2.692,27.393-8.088c6.382-5.389,9.571-14.08,9.571-26.072
			c0-12.212-3.189-21.041-9.571-26.487s-15.566-8.17-27.56-8.17h-16.504V354.941z"/>
		<polygon fill="#FFFFFF" points="862.765,378.047 862.765,263.021 941.322,263.021 941.322,286.124 888.18,286.124 888.18,307.744 
			937.855,307.744 937.855,330.354 888.18,330.354 888.18,354.941 942.477,354.941 942.477,378.047 		"/>
		<polygon fill="#FFFFFF" points="978.449,378.047 978.449,263.021 1003.864,263.021 1003.864,354.941 1048.752,354.941 
			1048.752,378.047 		"/>
		<polygon fill="#FFFFFF" points="1081.425,378.047 1081.425,263.021 1106.84,263.021 1106.84,354.941 1151.729,354.941 
			1151.729,378.047 		"/>
		<rect x="1185.063" y="263.019" fill="#FFFFFF" width="25.415" height="115.024"/>
		<polygon fill="#FFFFFF" points="1250.911,378.047 1250.911,263.021 1273.521,263.021 1328.64,334.478 1328.64,263.021 
			1353.231,263.021 1353.231,378.047 1332.438,378.047 1275.501,304.609 1275.501,378.047 		"/>
		<g opacity="0.8">
			<g>
				<defs>
					<rect id="SVGID_1_" x="1188.302" y="223.444" width="34.821" height="23.938"/>
				</defs>
				<clipPath id="SVGID_2_">
					<use xlink:href="#SVGID_1_"  overflow="visible"/>
				</clipPath>
				<polygon clip-path="url(#SVGID_2_)" fill="#010101" points="1188.3,247.374 1196.551,223.444 1223.121,223.444 
					1206.619,247.374 				"/>
			</g>
		</g>
		<polygon fill="#FFFFFF" points="1186.682,245.754 1194.933,221.826 1221.503,221.826 1205.002,245.754 		"/>
		
			<line fill="none" stroke="#FFFFFF" stroke-width="2" stroke-miterlimit="10" x1="447.054" y1="204.457" x2="1354.85" y2="204.457"/>
	</g>
</g>
</svg>
